<svg xmlns="http://www.w3.org/2000/svg" xmlns:xlink="http://www.w3.org/1999/xlink" version="1.1" x="0px" y="0px" viewBox="0 0 100 125" enable-background="new 0 0 100 100" xml:space="preserve"><path d="M53.299,44.83c1.828,0,3.128-2.143,3.27-2.387c0.146-0.251,0.146-0.56,0.002-0.811c-0.145-0.251-0.412-0.406-0.702-0.406  h-4.776c-0.28,0-0.54,0.144-0.688,0.381c-0.147,0.236-0.163,0.533-0.04,0.784C51.153,44.009,52.142,44.83,53.299,44.83z   M54.124,42.845c-0.528,0.417-1.088,0.445-1.532,0H54.124z M48.909,41.226h-4.777c-0.29,0-0.557,0.154-0.702,0.406  c-0.144,0.251-0.144,0.56,0.002,0.811c0.143,0.244,1.441,2.387,3.27,2.387h0c1.157,0,2.146-0.821,2.935-2.439  c0.123-0.251,0.107-0.548-0.04-0.784C49.448,41.37,49.188,41.226,48.909,41.226z M45.877,42.845h1.531  C46.963,43.29,46.401,43.262,45.877,42.845z M77.385,76.993c-0.019-0.063-0.04-0.124-0.068-0.186L64.371,48.467l1.84-0.626  l5.715,7.211c0.005,0.007,0.014,0.008,0.019,0.014c0.021,0.025,0.033,0.059,0.06,0.081c0.083,0.076,0.177,0.128,0.276,0.163  l4.046,1.758c0.104,0.046,0.214,0.067,0.322,0.067c0.312,0,0.609-0.183,0.742-0.486c0.179-0.411-0.01-0.889-0.42-1.065l-3.058-1.329  l0.348-0.382c0.146-0.161,0.222-0.371,0.211-0.587c-0.011-0.217-0.108-0.418-0.269-0.562l-7.185-6.437  c-0.001-0.001-0.002-0.001-0.003-0.002c-0.158-0.137-0.355-0.211-0.562-0.202c-0.034,0.001-0.065,0.012-0.1,0.018  c-0.042,0.007-0.083,0.008-0.124,0.021l-2.535,0.864l-3.729-8.167l7.155-7.156c0.229-0.23,0.234-0.591,0.03-0.836l0.812-0.812  c0.115,0.097,0.254,0.153,0.396,0.153c0.159,0,0.319-0.061,0.44-0.183l5.756-5.755c0.229-0.231,0.234-0.593,0.029-0.837l2.604-2.604  c0.243-0.243,0.243-0.637,0-0.881c-0.243-0.243-0.638-0.243-0.881,0l-2.604,2.604c-0.11-0.094-0.248-0.153-0.395-0.153  c-0.166,0-0.324,0.065-0.441,0.183l-5.756,5.756c-0.117,0.117-0.183,0.276-0.183,0.44c0,0.147,0.059,0.285,0.153,0.397l-0.812,0.811  c-0.111-0.093-0.248-0.152-0.396-0.152c-0.166,0-0.324,0.065-0.44,0.182l-6.375,6.373c-0.41-0.758-0.94-1.454-1.559-2.075  c1.134-0.997,1.835-2.444,1.835-4.011c0-2.949-2.399-5.348-5.349-5.348h-0.602c2.382-4.188,7.207-11.416,11.052-12.144  c0.439-0.083,0.728-0.506,0.646-0.946c-0.083-0.439-0.504-0.73-0.947-0.646c-5.242,0.992-10.947,10.718-12.602,13.735h-2.948  c-1.656-3.017-7.36-12.743-12.603-13.735c-0.434-0.084-0.863,0.205-0.946,0.646c-0.083,0.439,0.206,0.863,0.646,0.946  c3.842,0.727,8.669,7.956,11.051,12.144h-0.86c-2.949,0-5.349,2.399-5.349,5.348c0,1.613,0.73,3.086,1.912,4.081  c-0.59,0.605-1.1,1.275-1.495,2.005l-6.375-6.373c-0.117-0.117-0.275-0.182-0.44-0.182c-0.147,0-0.284,0.059-0.396,0.152  l-0.811-0.81c0.094-0.112,0.153-0.25,0.153-0.397c0-0.165-0.065-0.324-0.183-0.44l-5.756-5.756  c-0.222-0.222-0.598-0.225-0.836-0.029l-2.604-2.604c-0.243-0.243-0.638-0.243-0.881,0c-0.243,0.244-0.243,0.638,0,0.881  l2.604,2.604c-0.206,0.245-0.202,0.606,0.029,0.837l5.755,5.755c0.122,0.122,0.281,0.183,0.44,0.183  c0.142,0,0.281-0.056,0.396-0.153l0.812,0.812c-0.205,0.245-0.2,0.606,0.03,0.836l7.155,7.156L36.3,46.997l-2.565-0.874  c-0.053-0.018-0.107-0.021-0.161-0.028c-0.024-0.003-0.047-0.012-0.072-0.013c-0.093-0.003-0.185,0.01-0.272,0.038  c-0.026,0.008-0.047,0.023-0.072,0.034c-0.066,0.029-0.128,0.064-0.186,0.109c-0.012,0.01-0.027,0.013-0.039,0.023l-7.184,6.437  c-0.162,0.144-0.257,0.345-0.269,0.562c-0.012,0.216,0.064,0.426,0.21,0.587l0.352,0.384l-3.05,1.327  c-0.41,0.177-0.598,0.654-0.42,1.065c0.133,0.304,0.431,0.486,0.744,0.486c0.108,0,0.217-0.021,0.322-0.067l4.087-1.775  c0.019-0.009,0.03-0.028,0.048-0.038c0.061-0.031,0.122-0.059,0.174-0.107c0.019-0.017,0.027-0.041,0.045-0.061  c0.013-0.015,0.033-0.02,0.044-0.034l5.716-7.211l1.869,0.637l-12.94,28.331c-0.027,0.062-0.05,0.122-0.068,0.186  c-0.917,3.31,1.029,6.75,4.338,7.67l3.002,0.832c0.545,0.151,1.106,0.227,1.667,0.227c2.787,0,5.254-1.876,6-4.565  c0.017-0.061,0.029-0.121,0.037-0.185l2.006-16.894c0.794,10.88,5.12,24.756,10.333,24.756c5.213,0,9.538-13.876,10.333-24.756  l2.006,16.894c0.008,0.063,0.02,0.124,0.037,0.185c0.747,2.689,3.215,4.565,6.001,4.565c0.561,0,1.122-0.075,1.666-0.227  l3.004-0.832C76.355,83.743,78.302,80.303,77.385,76.993z M66.928,76.572l1.043-3.821l3.108,1.504  c-0.169,0.747-0.19,1.47-0.131,2.127l-3.189,0.876C67.523,77.024,67.245,76.793,66.928,76.572z M66.486,63.842  c2.222,3.629,4.326,6.366,5.726,8.031c-0.302,0.394-0.54,0.793-0.725,1.197l-3.524-1.706C67.644,70.86,66.417,68.602,66.486,63.842z   M70.203,67.234c-2.851-4.003-6.452-10.004-9.079-17.619l-0.005-0.042l0.882-0.3L70.203,67.234z M45.836,80.523  c-0.608-1.496-1.194-3.222-1.716-5.101h3.689c0.357,0.109,1.054,1.45,1.411,2.719c0.098,0.348,0.416,0.589,0.778,0.589H50  c0.361,0,0.68-0.238,0.779-0.587c0.41-1.44,1.186-2.721,1.512-2.721h3.588c-0.521,1.879-1.106,3.604-1.715,5.101H45.836z   M49.87,75.423h0.296c-0.052,0.088-0.104,0.176-0.151,0.266C49.968,75.599,49.918,75.511,49.87,75.423z M43.698,73.803  c-0.421-1.709-0.784-3.515-1.063-5.374h3.717c1.02,0,2.302,2.215,2.847,3.712c0.117,0.318,0.421,0.532,0.761,0.532h0.001  c0.339,0,0.643-0.211,0.761-0.53c0.445-1.212,1.776-3.714,3.043-3.714h3.601c-0.28,1.859-0.643,3.665-1.063,5.374H43.698z   M49.003,68.429h1.968c-0.396,0.479-0.733,1.006-1.001,1.492C49.709,69.435,49.383,68.908,49.003,68.429z M42.415,66.809  c-0.219-1.806-0.352-3.641-0.378-5.469h4.316c0.874,0,2.169,2.386,2.833,4.612c0.103,0.343,0.417,0.579,0.775,0.579h0.001  c0.358,0,0.673-0.233,0.775-0.577c0.561-1.861,1.91-4.614,3.028-4.614h4.199c-0.027,1.828-0.159,3.663-0.379,5.469H42.415z   M48.809,61.34h2.367c-0.486,0.638-0.892,1.378-1.206,2.069C49.664,62.718,49.272,61.978,48.809,61.34z M42.056,59.72  c0.01-0.44,0.015-0.876,0.039-1.331c0.645-0.212,1.405-0.604,1.893-1.344c0.298-0.45,0.439-0.966,0.449-1.531l2.38-0.002  c-0.204,0.519-0.099,1.132,0.317,1.551l1.777,1.773c0.28,0.282,0.649,0.424,1.018,0.424s0.736-0.142,1.019-0.421l1.774-1.776  c0.274-0.271,0.424-0.633,0.425-1.018c0-0.185-0.039-0.365-0.105-0.533l2.614-0.001c0.01,0.565,0.151,1.084,0.449,1.534  c0.465,0.703,1.177,1.098,1.8,1.314c0.025,0.467,0.03,0.91,0.04,1.36H42.056z M43.487,31.823c0.053,0.006,0.104,0.019,0.158,0.019  c0.778,0,1.332-0.583,1.868-1.147l0.675-0.675c0.56-0.532,1.138-1.082,1.147-1.85c0.004-0.262-0.069-0.516-0.201-0.763h5.686  c-0.149,0.262-0.232,0.531-0.229,0.81c0.01,0.768,0.588,1.318,1.147,1.85l0.676,0.675c0.535,0.564,1.09,1.146,1.867,1.146  c0.019,0,0.035-0.005,0.053-0.006c-0.225,0.325-0.518,0.599-0.859,0.809c-1.676-1.023-3.617-1.618-5.477-1.618  c-1.886,0-3.856,0.612-5.547,1.662C44.059,32.509,43.73,32.196,43.487,31.823z M45.583,28.005c0.083,0.082,0.117,0.135,0.13,0.142  c-0.062,0.149-0.408,0.478-0.64,0.699c-0.121,0.115-0.247,0.234-0.374,0.361c-0.125,0.126-0.245,0.251-0.359,0.373  c-0.216,0.227-0.536,0.562-0.689,0.634c-0.027-0.016-0.078-0.052-0.153-0.126c-0.178-0.178-0.283-0.399-0.351-0.635  c0.247-0.829,0.851-1.504,1.643-1.83C45.085,27.674,45.365,27.788,45.583,28.005z M54.348,28.051  c0.22-0.222,0.509-0.337,0.812-0.386c0.798,0.361,1.398,1.077,1.603,1.946c-0.072,0.19-0.178,0.37-0.331,0.522  c-0.074,0.074-0.125,0.11-0.152,0.126c-0.154-0.072-0.474-0.408-0.688-0.634c-0.115-0.121-0.235-0.247-0.361-0.373  c-0.125-0.126-0.252-0.245-0.372-0.36c-0.242-0.23-0.607-0.577-0.647-0.665C54.209,28.227,54.23,28.167,54.348,28.051z   M43.889,46.705c0.712,0.504,1.488,0.922,2.294,1.248c-1.093,0.398-2.163,0.174-2.879-0.098  C43.443,47.351,43.67,46.973,43.889,46.705z M42.51,39.904c0-0.351,0.051-0.693,0.128-1.028c0.278,0.146,0.582,0.221,0.912,0.221  c0.611,0,1.311-0.25,2.09-0.749c0.097-0.062,0.181-0.146,0.245-0.243c0.015-0.023,1.487-2.238,4.081-2.526  c2.593,0.289,4.066,2.503,4.078,2.524c0.063,0.099,0.147,0.183,0.246,0.245c0.78,0.499,1.479,0.749,2.091,0.749  c0.339,0,0.65-0.077,0.933-0.23c0.016-0.008,0.025-0.021,0.042-0.029c0.082,0.347,0.136,0.702,0.136,1.066  c0,3.512-4.098,6.339-7.49,6.339C46.607,46.243,42.51,43.416,42.51,39.904z M56.089,46.722c0.213,0.262,0.428,0.627,0.565,1.111  c-0.702,0.282-1.783,0.538-2.9,0.146C54.575,47.653,55.364,47.232,56.089,46.722z M56.54,37.443  c-0.157,0.085-0.569,0.029-1.245-0.376c-0.413-0.573-1.945-2.459-4.505-2.998l-0.013-0.452c2.277,0.271,4.696,1.688,5.913,3.65  C56.646,37.346,56.598,37.413,56.54,37.443z M49.152,33.627l-0.012,0.441c-2.561,0.539-4.092,2.425-4.506,2.998  c-0.673,0.405-1.088,0.46-1.244,0.376c-0.042-0.023-0.08-0.069-0.115-0.121C44.467,35.352,46.873,33.922,49.152,33.627z   M42.041,45.036c-0.044,0.051-0.087,0.1-0.13,0.155l0.031-0.262C41.973,44.966,42.009,44.999,42.041,45.036z M44.131,52.259  c1.783-0.65,2.455-0.38,2.67-0.197c0.237,0.198,0.33,0.574,0.347,0.959l-2.603,0.001C44.395,52.762,44.257,52.509,44.131,52.259z   M50.921,55.512l0.53,0.531l-1.521,1.522l-1.524-1.522l0.531-0.531H50.921z M42.822,55.515c-0.01,0.243-0.068,0.458-0.183,0.635  c-0.103,0.156-0.244,0.287-0.405,0.395c0.03-0.346,0.047-0.677,0.084-1.029H42.822z M57.454,56.149  c-0.116-0.178-0.173-0.395-0.183-0.64h0.41c0.034,0.321,0.049,0.621,0.076,0.937C57.645,56.356,57.53,56.267,57.454,56.149z   M52.831,53.021c0.015-0.375,0.101-0.752,0.345-0.958c0.217-0.179,0.886-0.451,2.661,0.193c-0.127,0.249-0.264,0.504-0.415,0.763  L52.831,53.021z M56.46,50.759c-1.977-0.729-3.403-0.714-4.327,0.064c-0.702,0.592-0.905,1.454-0.926,2.197h-2.435  c-0.021-0.743-0.223-1.605-0.926-2.197c-0.923-0.778-2.355-0.792-4.338-0.059c-0.139-0.431-0.234-0.842-0.285-1.234  c0.53,0.155,1.11,0.267,1.727,0.267c1.094,0,2.269-0.328,3.349-1.222c0.569,0.104,1.14,0.161,1.702,0.161  c0.53,0,1.067-0.055,1.604-0.147c1.076,0.884,2.244,1.208,3.332,1.208c0.646,0,1.259-0.119,1.811-0.288  C56.696,49.906,56.601,50.323,56.46,50.759z M57.94,45.056c0.038-0.044,0.08-0.083,0.117-0.127l0.037,0.31  C58.044,45.172,57.993,45.115,57.94,45.056z M61.324,47.793l-0.4,0.136l-0.163-1.37L61.324,47.793z M39.238,46.56l-0.164,1.381  l-0.403-0.138L39.238,46.56z M38.848,49.575c-2.588,7.517-6.13,13.459-8.967,17.472l8.113-17.763L38.848,49.575z M31.969,71.374  l-3.506,1.698c-0.184-0.401-0.422-0.803-0.722-1.194c1.396-1.66,3.497-4.391,5.713-8.009C33.52,68.658,32.273,70.904,31.969,71.374z   M32.189,77.261L29,76.382c0.06-0.654,0.038-1.377-0.131-2.122l3.117-1.509l1.042,3.816C32.707,76.793,32.426,77.024,32.189,77.261z   M30.623,83.094l-3.002-0.832c-1.956-0.543-3.119-2.556-2.626-4.515l2.102-4.602c0.714,1.219,0.772,2.492,0.619,3.514  c-0.001,0.005-0.005,0.01-0.007,0.015c-0.005,0.018,0,0.037-0.003,0.054c-0.178,1.112-0.584,1.91-0.621,1.98  c-0.161,0.302-0.045,0.68,0.258,0.843c0.094,0.048,0.193,0.072,0.292,0.072c0.223,0,0.438-0.119,0.549-0.331  c0.036-0.065,0.373-0.713,0.611-1.674l2.565,0.706c-0.586,1.002-0.611,1.845-0.611,1.92c-0.001,0.341,0.273,0.615,0.615,0.62  c0.003,0,0.005,0,0.008,0c0.338,0,0.615-0.272,0.623-0.61c0.002-0.109,0.114-2.422,3.668-3.592l-0.464,3.913  C34.625,82.463,32.555,83.632,30.623,83.094z M35.824,75.307c-0.639,0.175-1.193,0.384-1.681,0.615l-1.078-3.949  c0.541-0.869,2.028-3.877,1.547-10.065c1.262-2.215,2.521-4.711,3.689-7.466L35.824,75.307z M41.152,51.582  c0.155,0.47,0.346,0.949,0.578,1.44h-0.522c-0.082,0-0.154,0.026-0.232,0.043L41.152,51.582z M50,86.343  c-0.969,0-2.227-1.595-3.456-4.198h2.646v2.059c0,0.448,0.363,0.811,0.811,0.811s0.811-0.362,0.811-0.811v-2.059h2.646  C52.227,84.748,50.969,86.343,50,86.343z M58.792,53.018h-0.554c0.245-0.518,0.442-1.022,0.601-1.516l0.185,1.56  C58.947,53.047,58.874,53.018,58.792,53.018z M61.714,54.581c1.147,2.69,2.381,5.129,3.616,7.3  c-0.491,6.246,1.023,9.262,1.557,10.108l-1.073,3.936c-0.478-0.227-1.017-0.431-1.636-0.604L61.714,54.581z M72.381,82.262  l-3.004,0.832c-0.327,0.09-0.664,0.136-1,0.136c-1.643,0-3.1-1.087-3.575-2.654l-0.464-3.896c3.497,1.173,3.613,3.456,3.617,3.575  c0.003,0.341,0.282,0.615,0.622,0.615c0.31,0.029,0.625-0.279,0.623-0.625c0-0.075-0.024-0.918-0.61-1.92l2.563-0.706  c0.24,0.961,0.577,1.608,0.612,1.674c0.113,0.212,0.328,0.331,0.55,0.331c0.1,0,0.199-0.024,0.293-0.072  c0.305-0.163,0.419-0.541,0.257-0.845c-0.017-0.031-1.545-2.983,0.018-5.606l2.123,4.647C75.499,79.706,74.337,81.719,72.381,82.262  z"/><text x="0" y="115" fill="#000000" font-size="5px" font-weight="bold" font-family="'Helvetica Neue', Helvetica, Arial-Unicode, Arial, Sans-serif">Created by Ozza Okuonghae</text><text x="0" y="120" fill="#000000" font-size="5px" font-weight="bold" font-family="'Helvetica Neue', Helvetica, Arial-Unicode, Arial, Sans-serif">from the Noun Project</text></svg>